<svg xmlns="http://www.w3.org/2000/svg" width="256" height="256" fill="none" viewBox="0 0 256 256">
  <path fill="#50c8f0" d="M216.616 177.231c0 21.751-17.634 39.384-39.385 39.384-21.752 0-39.385-17.633-39.385-39.384 0-21.752 17.633-39.385 39.385-39.385 21.751 0 39.385 17.633 39.385 39.385ZM118.154 177.231c0 21.751-17.633 39.384-39.385 39.384-21.751 0-39.384-17.633-39.384-39.384 0-21.752 17.633-39.385 39.384-39.385 21.752 0 39.385 17.633 39.385 39.385ZM118.154 78.77c0 21.751-17.633 39.384-39.385 39.384-21.751 0-39.384-17.633-39.384-39.385 0-21.751 17.633-39.384 39.384-39.384 21.752 0 39.385 17.633 39.385 39.384Z" />
</svg>