<?xml version="1.0" standalone="no"?>
<!DOCTYPE svg PUBLIC "-//W3C//DTD SVG 20010904//EN"
 "http://www.w3.org/TR/2001/REC-SVG-20010904/DTD/svg10.dtd">
<svg version="1.0" xmlns="http://www.w3.org/2000/svg"
 width="2080.000000pt" height="2080.000000pt" viewBox="0 0 2080.000000 2080.000000"
 preserveAspectRatio="xMidYMid meet">
<metadata>
Created by potrace 1.11, written by Peter Selinger 2001-2013
</metadata>
<g transform="translate(0.000000,2080.000000) scale(0.100000,-0.100000)"
fill="#000000" stroke="none">
<path d="M5649 18396 c-2 -2 -39 -7 -82 -11 -43 -3 -88 -8 -100 -10 -12 -2
-42 -6 -67 -9 -326 -39 -720 -163 -1070 -338 -680 -339 -1234 -895 -1567
-1573 -24 -49 -49 -98 -54 -107 -20 -39 -109 -270 -142 -373 -49 -148 -105
-382 -121 -500 -8 -55 -17 -110 -21 -130 -20 -103 -28 -592 -12 -775 5 -52 10
-97 12 -100 1 -3 5 -29 9 -58 28 -236 130 -617 220 -827 8 -16 26 -59 41 -95
50 -116 166 -332 244 -454 42 -65 81 -125 86 -135 6 -9 12 -18 15 -21 3 -3 24
-30 45 -60 156 -216 401 -469 635 -656 538 -431 1213 -696 1910 -750 175 -14
567 -7 655 11 11 2 43 7 70 10 205 23 548 104 725 172 8 4 17 7 20 8 61 21
294 123 370 161 415 211 770 487 1064 829 136 158 179 214 290 380 99 150 229
388 278 510 9 22 24 58 33 80 10 22 17 41 16 43 -1 1 5 15 13 30 27 53 126
374 140 454 2 15 7 31 9 36 3 4 8 26 11 48 4 22 9 51 11 64 3 14 8 40 11 59 3
18 8 43 10 55 2 11 7 44 10 72 2 28 7 62 10 75 26 129 23 618 -6 819 -6 41
-13 93 -16 115 -6 51 -21 127 -46 235 -11 47 -21 92 -23 100 -17 83 -92 309
-149 450 -316 769 -898 1403 -1640 1785 -207 106 -435 196 -646 255 -41 11
-91 25 -110 30 -19 6 -46 12 -60 14 -14 2 -59 11 -100 19 -41 9 -95 19 -120
23 -25 4 -47 8 -50 9 -3 1 -39 5 -80 9 -41 5 -84 11 -95 13 -22 6 -581 14
-586 9z"/>
<path d="M5747 9394 c-1 -1 -45 -4 -97 -8 -373 -25 -729 -108 -1085 -253 -302
-123 -644 -327 -884 -528 -455 -380 -793 -835 -1015 -1364 -45 -107 -130 -351
-140 -403 -3 -13 -12 -48 -20 -80 -8 -31 -17 -67 -20 -80 -3 -12 -8 -34 -11
-48 -21 -96 -49 -278 -62 -408 -16 -154 -7 -696 12 -755 2 -7 6 -34 9 -62 7
-57 10 -77 32 -190 177 -912 737 -1740 1519 -2247 181 -117 400 -235 535 -288
30 -12 69 -28 85 -35 76 -34 302 -108 415 -135 114 -28 196 -46 259 -56 18 -3
43 -8 55 -10 11 -2 44 -7 71 -10 28 -3 55 -7 62 -9 58 -19 586 -28 748 -13
127 12 314 41 415 63 14 3 36 8 50 11 14 3 59 14 100 25 41 11 83 22 93 24 46
11 273 92 372 133 206 85 484 238 659 362 347 247 667 570 882 894 30 44 58
86 62 91 5 6 34 53 65 105 141 241 266 530 341 788 20 68 38 133 41 145 2 12
9 40 14 62 5 22 12 51 14 65 3 14 12 63 21 110 9 47 18 112 22 144 3 33 8 69
10 80 23 115 22 707 -1 779 -2 7 -6 35 -9 62 -24 218 -100 525 -191 770 -41
111 -47 126 -134 305 -38 80 -78 159 -88 175 -62 105 -83 139 -132 215 -30 47
-59 90 -64 95 -4 6 -25 33 -45 61 -178 247 -464 535 -712 717 -36 27 -72 54
-80 60 -28 23 -185 124 -274 176 -218 128 -539 265 -781 332 -137 38 -298 74
-374 85 -39 5 -84 12 -121 19 -14 2 -54 7 -90 10 -36 3 -92 8 -125 11 -56 6
-403 12 -408 8z"/>
<path d="M14778 9395 c-2 -1 -58 -5 -125 -9 -67 -3 -128 -8 -135 -10 -7 -3
-38 -7 -68 -10 -336 -35 -798 -176 -1115 -339 -159 -82 -443 -257 -522 -321
-10 -8 -45 -36 -78 -62 -176 -140 -355 -313 -516 -501 -49 -57 -190 -246 -243
-327 -160 -244 -293 -516 -388 -796 -39 -117 -94 -316 -104 -380 -3 -19 -7
-37 -9 -40 -2 -3 -6 -24 -9 -46 -4 -22 -9 -51 -11 -64 -10 -49 -27 -166 -31
-215 -16 -193 -19 -265 -18 -408 1 -169 8 -273 30 -443 5 -46 10 -71 35 -209
89 -493 349 -1061 669 -1465 130 -165 327 -374 450 -479 19 -16 49 -41 65 -56
69 -60 268 -206 380 -276 385 -244 863 -427 1290 -493 219 -35 308 -41 580
-41 210 0 388 8 435 20 8 2 35 6 60 9 25 3 54 8 65 10 11 2 40 7 65 11 154 25
414 96 581 159 53 20 99 36 102 36 8 0 165 73 257 120 524 264 963 643 1303
1126 48 68 87 127 87 129 0 3 23 42 52 88 57 91 214 408 248 502 130 359 189
604 227 955 16 146 7 730 -12 760 -2 3 -6 30 -10 60 -3 30 -8 66 -10 80 -22
173 -133 569 -209 744 -129 300 -252 520 -423 754 -47 64 -88 119 -92 122 -3
3 -26 30 -51 60 -125 153 -338 359 -505 489 -44 34 -89 70 -100 79 -36 29
-218 149 -305 200 -219 129 -513 257 -748 327 -68 20 -131 38 -141 40 -9 1
-36 8 -61 15 -25 7 -52 13 -60 15 -25 5 -183 34 -215 40 -16 2 -50 7 -75 10
-25 3 -58 7 -75 10 -91 13 -506 29 -517 20z"/>
</g>
</svg>
