<?xml version="1.0" standalone="no"?>
<!DOCTYPE svg PUBLIC "-//W3C//DTD SVG 20010904//EN"
 "http://www.w3.org/TR/2001/REC-SVG-20010904/DTD/svg10.dtd">
<svg version="1.0" xmlns="http://www.w3.org/2000/svg"
 width="4160.000000pt" height="4160.000000pt" viewBox="0 0 4160.000000 4160.000000"
 preserveAspectRatio="xMidYMid meet">
<metadata>
Created by potrace 1.11, written by Peter Selinger 2001-2013
</metadata>
<g transform="translate(0.000000,4160.000000) scale(0.100000,-0.100000)"
fill="#000000" stroke="none">
<path d="M11459 36796 c-2 -2 -53 -7 -114 -10 -147 -9 -292 -22 -355 -31 -14
-2 -50 -6 -81 -10 -31 -3 -66 -7 -76 -9 -11 -3 -44 -7 -74 -11 -45 -6 -137
-21 -304 -52 -16 -3 -88 -18 -160 -34 -71 -16 -141 -32 -156 -35 -21 -4 -93
-23 -329 -88 -136 -38 -416 -135 -595 -206 -701 -280 -1334 -658 -1919 -1148
-188 -158 -244 -209 -446 -412 -204 -204 -288 -296 -412 -445 -108 -130 -154
-187 -193 -240 -16 -22 -32 -42 -35 -45 -3 -3 -40 -52 -81 -110 -186 -258
-359 -533 -499 -795 -53 -97 -200 -392 -200 -399 0 -3 -14 -36 -31 -73 -26
-57 -56 -130 -144 -348 -5 -11 -9 -22 -9 -25 -3 -9 -38 -105 -47 -125 -36 -83
-182 -574 -205 -690 -2 -11 -6 -29 -8 -40 -37 -163 -51 -230 -71 -335 -13 -69
-26 -145 -29 -170 -3 -25 -8 -56 -11 -70 -3 -14 -10 -65 -16 -115 -6 -49 -12
-100 -14 -113 -2 -13 -7 -53 -10 -90 -4 -37 -8 -85 -10 -107 -16 -163 -20
-295 -20 -610 0 -375 4 -468 31 -717 3 -29 7 -73 10 -98 2 -25 6 -58 9 -75 2
-16 7 -52 10 -80 8 -56 51 -316 59 -355 9 -39 15 -72 22 -110 38 -218 171
-681 282 -985 119 -325 321 -761 473 -1020 10 -16 27 -48 39 -70 82 -150 282
-451 445 -670 208 -279 384 -483 650 -751 235 -236 475 -449 680 -604 33 -25
66 -50 75 -57 34 -27 109 -81 170 -124 156 -110 200 -139 209 -139 5 0 11 -4
13 -8 4 -10 144 -97 323 -202 190 -111 553 -291 765 -379 96 -40 184 -77 195
-82 108 -48 644 -221 755 -244 8 -2 71 -17 140 -34 119 -28 306 -68 360 -76
14 -2 34 -6 45 -8 11 -3 56 -10 100 -17 44 -7 89 -14 100 -16 36 -7 280 -36
415 -49 275 -27 1065 -27 1234 0 11 2 53 6 91 10 39 3 81 8 95 10 14 2 52 6
85 10 33 4 67 9 76 10 9 2 40 6 69 10 29 4 60 8 69 10 9 1 36 6 61 10 25 4 54
9 65 12 11 2 29 5 40 7 68 10 279 56 410 88 44 11 87 21 96 23 9 2 49 13 90
25 41 12 79 23 84 24 28 6 175 52 295 93 457 154 913 365 1335 616 107 64 122
73 260 163 575 374 1161 905 1595 1444 47 58 87 107 90 110 3 3 30 39 60 80
30 41 58 80 63 85 113 147 341 500 449 695 14 25 36 63 48 85 27 47 200 392
225 450 10 22 26 58 36 80 94 211 209 519 279 749 41 136 113 395 125 454 2 9
8 37 14 62 5 25 12 56 15 70 2 14 11 57 19 95 14 66 22 110 33 180 3 17 9 53
14 80 6 28 14 84 20 125 16 120 21 153 25 180 2 14 6 59 10 100 3 41 8 91 10
110 28 256 28 1039 0 1230 -2 14 -6 59 -10 100 -4 41 -8 86 -10 100 -2 14 -7
50 -10 80 -3 30 -8 62 -10 70 -2 8 -7 38 -10 65 -5 43 -15 105 -40 250 -85
478 -250 1020 -460 1505 -60 139 -217 462 -275 565 -114 205 -268 457 -282
463 -4 2 -8 8 -8 14 0 30 -335 482 -516 695 -211 249 -547 588 -754 762 -36
30 -69 60 -75 66 -47 51 -433 340 -620 465 -137 92 -391 250 -402 250 -3 0
-17 8 -31 18 -68 47 -451 241 -637 322 -265 116 -667 262 -835 305 -8 2 -46
13 -85 25 -197 58 -539 134 -745 166 -19 3 -44 7 -55 9 -76 12 -94 15 -127 20
-20 2 -78 9 -130 15 -51 6 -104 12 -118 15 -14 2 -68 7 -120 10 -52 4 -111 9
-130 12 -41 5 -806 13 -811 9z"/>
<path d="M11478 18785 c-1 -1 -65 -6 -141 -10 -76 -3 -146 -8 -155 -10 -9 -1
-48 -6 -87 -9 -38 -4 -86 -9 -105 -11 -19 -2 -60 -7 -90 -10 -30 -3 -66 -8
-80 -11 -14 -2 -38 -6 -55 -8 -16 -2 -46 -7 -65 -10 -19 -3 -46 -8 -60 -10
-564 -90 -1221 -291 -1753 -535 -92 -42 -358 -175 -427 -214 -30 -16 -71 -39
-90 -50 -28 -15 -162 -95 -338 -202 -43 -26 -275 -184 -342 -234 -171 -125
-317 -242 -495 -395 -206 -178 -499 -471 -675 -675 -30 -35 -60 -69 -65 -75
-6 -6 -40 -47 -75 -91 -36 -44 -68 -82 -71 -85 -15 -13 -244 -328 -306 -420
-131 -195 -202 -309 -314 -507 -101 -178 -243 -466 -316 -638 -14 -33 -33 -78
-43 -100 -9 -22 -32 -78 -50 -125 -18 -47 -38 -98 -45 -115 -21 -50 -111 -322
-153 -465 -50 -169 -83 -297 -121 -470 -25 -115 -39 -185 -75 -395 -10 -60
-25 -161 -31 -215 -4 -30 -8 -71 -11 -90 -11 -98 -18 -172 -31 -360 -5 -58 -8
-267 -8 -465 1 -324 4 -440 20 -600 3 -27 7 -70 10 -95 4 -43 12 -112 20 -175
2 -16 7 -52 10 -80 9 -71 43 -282 55 -335 5 -25 12 -56 14 -70 21 -126 145
-619 173 -690 3 -8 7 -19 8 -25 6 -22 76 -231 84 -250 5 -11 17 -42 26 -70
199 -571 592 -1292 987 -1810 101 -133 274 -341 403 -485 22 -25 130 -135 240
-245 237 -238 481 -452 700 -615 33 -25 62 -48 65 -51 18 -21 473 -329 487
-329 3 0 14 -6 22 -14 57 -50 585 -331 804 -427 51 -22 106 -47 122 -54 44
-20 365 -146 384 -151 9 -2 57 -18 106 -35 139 -48 335 -106 500 -148 256 -65
354 -86 645 -136 52 -9 232 -33 290 -39 19 -2 64 -7 99 -11 36 -4 88 -8 115
-11 28 -2 89 -7 136 -11 186 -16 887 -8 1075 12 22 2 67 7 100 10 81 7 162 17
255 30 14 2 47 6 73 10 27 4 58 8 69 10 11 2 74 14 141 25 411 71 885 205
1292 365 158 62 394 163 444 190 14 7 98 49 186 93 88 44 189 97 225 117 36
21 85 49 110 63 207 116 579 367 784 527 52 41 229 187 295 244 205 175 564
536 722 725 13 16 29 34 34 40 6 6 49 58 95 116 47 58 87 107 90 110 6 6 100
133 167 225 100 138 373 562 373 579 0 2 21 39 46 82 50 84 200 378 259 509
42 91 144 335 151 360 1 6 17 46 34 90 32 80 140 397 145 425 2 9 14 54 29
100 24 81 79 297 90 350 2 14 11 54 20 90 8 36 18 81 21 100 3 19 10 53 15 75
5 22 11 58 14 80 4 23 8 52 11 65 3 13 7 42 10 65 4 22 8 52 11 68 11 71 13
86 19 137 3 30 8 71 11 90 2 19 6 60 9 90 2 30 7 75 9 100 22 190 34 688 21
920 -6 111 -16 263 -20 313 -3 27 -7 74 -10 105 -8 94 -34 286 -61 447 -43
258 -135 650 -206 875 -57 184 -147 441 -183 525 -7 17 -36 86 -65 155 -107
254 -269 582 -357 722 -12 21 -23 40 -23 43 0 10 -191 316 -259 415 -122 179
-327 457 -361 490 -3 3 -39 46 -80 95 -41 50 -81 97 -90 106 -8 9 -46 52 -84
95 -181 205 -675 671 -809 763 -12 8 -24 18 -27 21 -21 28 -463 345 -577 415
-18 11 -78 48 -133 83 -55 34 -102 62 -104 62 -2 0 -33 17 -67 38 -111 67
-505 272 -523 272 -2 0 -46 20 -97 44 -125 59 -441 183 -609 239 -332 112
-791 227 -1080 272 -19 3 -46 7 -60 10 -29 5 -75 11 -145 20 -27 4 -62 8 -77
11 -69 11 -281 30 -468 43 -109 8 -724 13 -732 6z"/>
<path d="M29449 18785 c-2 -1 -53 -6 -114 -9 -60 -4 -126 -9 -145 -11 -19 -2
-64 -7 -100 -10 -36 -4 -76 -8 -90 -10 -14 -2 -52 -6 -85 -10 -33 -4 -67 -9
-76 -10 -9 -2 -40 -6 -69 -10 -29 -4 -60 -8 -69 -10 -9 -1 -36 -6 -61 -10 -25
-4 -54 -9 -65 -12 -11 -2 -29 -6 -40 -7 -157 -26 -579 -125 -662 -157 -16 -6
-30 -10 -33 -10 -22 2 -389 -121 -567 -190 -125 -48 -148 -57 -226 -93 -32
-14 -60 -26 -62 -26 -4 0 -83 -37 -305 -143 -25 -12 -57 -30 -72 -40 -16 -10
-28 -16 -28 -13 0 2 -43 -20 -96 -50 -53 -30 -97 -54 -99 -54 -7 0 -283 -167
-388 -235 -245 -159 -624 -444 -783 -590 -6 -5 -47 -41 -90 -80 -82 -73 -402
-390 -489 -485 -59 -64 -214 -246 -265 -310 -19 -24 -46 -58 -60 -75 -14 -16
-46 -57 -70 -90 -25 -33 -47 -62 -50 -65 -12 -11 -131 -182 -200 -285 -40 -60
-81 -122 -91 -137 -10 -14 -52 -83 -93 -152 -271 -454 -471 -888 -636 -1376
-28 -85 -53 -159 -54 -165 -2 -5 -9 -30 -16 -55 -7 -25 -14 -49 -16 -55 -1 -5
-13 -51 -28 -101 -63 -224 -141 -594 -171 -814 -3 -25 -8 -56 -10 -70 -2 -14
-7 -50 -10 -80 -3 -30 -8 -66 -10 -80 -2 -14 -7 -56 -10 -95 -3 -38 -8 -86
-10 -105 -27 -240 -27 -990 0 -1220 2 -19 7 -64 10 -100 3 -36 8 -76 10 -90 2
-14 6 -52 10 -85 3 -33 10 -85 15 -115 5 -30 17 -100 26 -155 9 -55 18 -113
21 -130 2 -16 11 -61 20 -100 8 -38 17 -82 19 -97 4 -21 83 -340 99 -398 3 -8
9 -31 14 -50 36 -133 166 -518 200 -595 5 -11 42 -99 82 -195 88 -212 268
-575 379 -765 105 -179 192 -319 202 -323 4 -2 8 -8 8 -13 0 -9 29 -53 139
-209 43 -61 97 -136 124 -170 7 -9 32 -42 57 -75 55 -74 285 -349 360 -430
439 -477 943 -897 1480 -1232 80 -50 163 -101 185 -113 22 -12 54 -29 70 -39
316 -185 824 -411 1214 -541 133 -43 404 -125 451 -135 8 -2 64 -16 124 -30
60 -15 116 -28 125 -30 9 -2 72 -14 141 -29 136 -28 221 -43 288 -51 24 -3 53
-7 65 -10 29 -6 78 -13 184 -25 48 -5 106 -12 128 -14 320 -38 994 -43 1325
-12 117 12 196 20 200 21 3 1 37 5 75 9 39 5 77 10 86 11 9 2 40 6 70 10 45 6
137 21 304 52 17 3 89 18 160 34 72 16 141 32 156 35 20 4 282 75 324 88 6 1
30 8 55 15 157 44 605 209 777 287 32 15 74 33 93 42 190 82 550 276 789 425
239 149 593 400 695 492 6 6 31 26 56 46 25 20 56 47 70 58 14 12 36 32 50 43
146 123 496 466 648 635 254 285 473 574 704 933 57 88 118 190 118 197 0 3 6
14 14 22 7 9 30 47 50 84 20 37 46 84 58 105 82 143 248 498 330 701 78 194
196 530 213 602 2 9 13 49 25 89 12 40 23 80 25 89 2 9 13 51 25 93 11 43 23
85 25 95 2 10 9 41 15 68 6 28 13 57 15 65 34 146 91 477 110 635 3 28 8 64
10 80 2 17 7 62 10 100 4 39 9 84 11 100 26 217 26 981 -1 1225 -4 35 -12 113
-21 205 -3 28 -7 61 -9 75 -3 14 -8 52 -11 85 -4 33 -8 63 -10 66 -1 3 -6 28
-9 55 -13 102 -81 438 -121 599 -86 341 -242 803 -355 1052 -10 23 -19 44 -19
47 0 23 -238 497 -335 666 -21 36 -45 79 -55 96 -171 297 -543 809 -775 1063
-22 25 -69 77 -104 115 -85 94 -354 361 -466 462 -396 358 -895 710 -1365 962
-94 50 -397 202 -404 202 -2 0 -37 15 -78 34 -220 101 -581 233 -893 325 -199
59 -670 164 -835 185 -25 3 -56 8 -70 11 -14 3 -45 7 -70 10 -25 3 -58 8 -75
10 -16 2 -57 7 -90 10 -33 4 -73 9 -90 11 -16 2 -68 6 -115 9 -47 4 -101 9
-120 12 -38 6 -826 14 -831 8z"/>
</g>
</svg>
