<svg
xmlns="http://www.w3.org/2000/svg"
role="img"
aria-hidden="true"
viewBox="0 0 512 512"
>
<path
  d="M255.98,6.32C114.63,6.32,0,120.94,0,262.34c0,113.09,73.34,209.05,175.08,242.9c12.8,2.35,17.47-5.56,17.47-12.34c0-6.08-0.22-22.18-0.35-43.54c-71.21,15.47-86.24-34.32-86.24-34.32c-11.64-29.57-28.42-37.45-28.42-37.45c-23.24-15.88,1.76-15.56,1.76-15.56c25.69,1.81,39.21,26.38,39.21,26.38c22.84,39.12,59.92,27.82,74.5,21.27c2.33-16.54,8.94-27.82,16.25-34.22C152.43,369,92.67,347.04,92.67,248.94c0-27.95,9.97-50.8,26.35-68.69c-2.63-6.48-11.42-32.5,2.51-67.75c0,0,21.49-6.88,70.4,26.24c20.42-5.68,42.32-8.52,64.09-8.62c21.74,0.1,43.64,2.94,64.09,8.62c48.87-33.13,70.33-26.24,70.33-26.24c13.97,35.25,5.18,61.27,2.55,67.75c16.41,17.9,26.31,40.75,26.31,68.69c0,98.35-59.85,119.99-116.88,126.32c9.19,7.9,17.38,23.53,17.38,47.41c0,34.22-0.31,61.83-0.31,70.23c0,6.85,4.61,14.81,17.6,12.31C438.72,471.29,512,375.4,512,262.34C512,120.94,397.37,6.32,255.98,6.32z"
/>
</svg>