<svg xmlns="http://www.w3.org/2000/svg" role="img" aria-hidden="true" width="16" height="16" viewBox="0 0 16 16" fill="currentColor" class="globe">
  <path d="M8,0C3.6,0,0,3.6,0,8s3.6,8,8,8s8-3.6,8-8S12.4,0,8,0z M14.2,4.9h-2.7c-0.3-1.4-0.8-2.7-1.4-3.5C12,2,13.4,3.3,14.2,4.9zM10.8,8c0,0.7-0.1,1.4-0.1,2.1H5.3C5.2,9.4,5.2,8.7,5.2,8s0.1-1.4,0.1-2.1h5.4C10.8,6.6,10.8,7.3,10.8,8z M8,1c0.9,0,2,1.4,2.5,3.9h-5C6,2.5,7.1,1,8,1z M5.8,1.4C5.2,2.2,4.7,3.5,4.4,4.9H1.8C2.6,3.3,4,2,5.8,1.4z M1,8c0-0.7,0.1-1.4,0.3-2.1h2.9C4.2,6.6,4.1,7.3,4.1,8s0,1.4,0.1,2.1H1.3C1.1,9.4,1,8.7,1,8z M1.8,11.1h2.7c0.3,1.4,0.8,2.7,1.4,3.5C4,14,2.6,12.7,1.8,11.1z M8,15c-0.9,0-2-1.4-2.5-3.9h5C10,13.5,8.9,15,8,15z M10.2,14.6c0.6-0.9,1.1-2.1,1.4-3.5h2.7C13.4,12.7,12,14,10.2,14.6z M11.7,10.1c0.1-0.7,0.1-1.3,0.1-2.1s0-1.4-0.1-2.1h2.9C14.9,6.6,15,7.3,15,8s-0.1,1.4-0.3,2.1C14.7,10.1,11.7,10.1,11.7,10.1z"/>
</svg>