<svg xmlns="http://www.w3.org/2000/svg" role="img" aria-hidden="true" width="24" height="24" viewBox="0 0 24 24" fill="currentColor">
  <path d="M24,1.8v20.5c0,1-0.8,1.8-1.8,1.8H1.8c-1,0-1.8-0.8-1.8-1.8V1.8C0,0.8,0.8,0,1.8,0h20.5C23.2,0,24,0.8,24,1.8z M7.2,9H3.5v11.5h3.6V9z M7.4,5.3c0-1.2-0.9-2.1-2.1-2.1S3.3,4.1,3.3,5.3s0.9,2.1,2.1,2.1S7.4,6.5,7.4,5.3z M20.5,13.4c0-3.5-2.2-4.7-4.2-4.7c-1.9,0-3.1,1.2-3.4,1.9h0V9H9.3v11.5h3.6v-6.2c0-1.7,1-2.5,2.1-2.5c1,0,1.8,0.6,1.8,2.4v6.3h3.6L20.5,13.4L20.5,13.4z"/>
</svg>