<svg xmlns="http://www.w3.org/2000/svg" role="img" aria-hidden="true" viewBox="0 0 512 512">
  <path d="M512,37.8V474.2c0,20.87-16.92,37.8-37.79,37.8H37.79C16.92,512,0,495.08,0,474.2V37.8C0,16.92,16.92,0,37.79,0h436.41C495.08,0,512,16.92,512,37.8z M152.6,191.65H75.63v244.53h76.97V191.65z M158.49,113.59c0-25.53-19.87-44.2-44.38-44.2s-44.38,18.68-44.38,44.2s19.87,44.18,44.38,44.18S158.49,139.11,158.49,113.59z M436.37,285.13c0-74.69-46.41-100.17-89.36-100.17c-39.71,0-65.71,25.7-73.16,40.75h-0.98v-33.88h-74.02v244.53h76.97V303.79c0-35.35,22.39-52.54,45.23-52.54c21.61,0,38.36,12.15,38.36,51.56v133.56h76.97V285.13z"/>
</svg>