<svg xmlns="http://www.w3.org/2000/svg" role="img" aria-hidden="true" width="155.07" height="24" viewBox="0 0 155.07 24">
  <g>
    <path d="M149.85,13.57c2.88,0,5.22,2.34,5.22,5.22c0,2.88-2.34,5.22-5.22,5.22s-5.22-2.34-5.22-5.22C144.64,15.9,146.97,13.57,149.85,13.57" />
    <path d="M149.85,0c2.88,0,5.22,2.34,5.22,5.22c0,2.88-2.34,5.22-5.22,5.22s-5.22-2.34-5.22-5.22C144.64,2.34,146.97,0,149.85,0" />
    <path d="M136.29,13.57c2.88,0,5.22,2.34,5.22,5.22c0,2.88-2.34,5.22-5.22,5.22c-2.88,0-5.22-2.34-5.22-5.22C131.07,15.9,133.41,13.57,136.29,13.57" />
  </g>
  <g>
    <path d="M1.43,15.32c-0.83,0-1.43,0.62-1.43,1.5c0,0.86,0.57,1.5,1.38,1.5H1.4c0.88,0,1.43-0.64,1.43-1.5C2.83,15.94,2.26,15.32,1.43,15.32z" />
    <path d="M14.27,20.58c-0.5,0-0.9,0.15-1.18,0.46c-0.28,0.31-0.42,0.73-0.42,1.26c0,0.53,0.14,0.94,0.43,1.25c0.29,0.31,0.68,0.46,1.17,0.46c0.46,0,0.84-0.15,1.13-0.46c0.29-0.31,0.43-0.72,0.43-1.25c0-0.54-0.14-0.96-0.42-1.26C15.13,20.73,14.75,20.58,14.27,20.58z" />
    <path d="M18.72,15.2h-7.72c-0.67,0-1.21-0.22-1.62-0.67c-0.41-0.45-0.61-1.04-0.61-1.78c0-1.04,0.12-2.08,0.36-3.11H5.99c-0.23,0.47-0.42,1.05-0.56,1.72c-0.14,0.68-0.21,1.31-0.21,1.91c0,1.49,0.42,2.65,1.27,3.5c0.85,0.85,2,1.28,3.46,1.28h12.31V6.29h-3.55V15.2z" />
    <rect x="25.63" width="3.54" height="18.06" />
    <path d="M43.15,6.29h-3.61c-1.5,0-2.82,0.25-3.97,0.75c-1.15,0.5-2.03,1.23-2.66,2.18c-0.63,0.95-0.94,2.05-0.94,3.3c0,1.77,0.46,3.14,1.37,4.1c0.91,0.96,2.22,1.44,3.91,1.44h2.36v0.12c0,0.86-0.24,1.53-0.73,2.02c-0.49,0.49-1.18,0.74-2.08,0.74c-0.62,0-1.21-0.07-1.79-0.2c-0.57-0.14-1.18-0.37-1.82-0.7l-1.38,2.59c0.73,0.43,1.48,0.73,2.27,0.9c0.79,0.17,1.72,0.25,2.79,0.25c2,0,3.54-0.49,4.64-1.47c1.09-0.98,1.64-2.37,1.64-4.17V6.29z M39.61,15.2h-1.64c-0.8,0-1.39-0.22-1.78-0.67c-0.39-0.45-0.58-1.15-0.58-2.1c0-1.04,0.28-1.85,0.85-2.43c0.57-0.57,1.36-0.86,2.37-0.86h0.77V15.2z" />
    <path d="M48.86,18.27c0,0.74-0.19,1.34-0.58,1.83c-0.39,0.48-0.9,0.73-1.53,0.73c-0.45,0-0.83-0.05-1.15-0.15c-0.32-0.1-0.69-0.28-1.11-0.55l-1.43,2.31c0.75,0.5,1.46,0.85,2.14,1.04c0.68,0.19,1.42,0.29,2.23,0.29c1.51,0,2.71-0.48,3.62-1.44c0.9-0.96,1.35-2.26,1.35-3.89V6.29h-3.54V18.27z" />
    <path d="M71.24,4.25c0.46,0,0.84-0.15,1.13-0.46s0.43-0.72,0.43-1.25c0-0.54-0.14-0.96-0.42-1.26c-0.28-0.3-0.66-0.45-1.14-0.45c-0.5,0-0.9,0.15-1.18,0.46c-0.28,0.31-0.42,0.73-0.42,1.26c0,0.53,0.14,0.94,0.43,1.25S70.75,4.25,71.24,4.25z" />
    <path d="M81.91,20.58c-0.5,0-0.88,0.15-1.17,0.46c-0.28,0.31-0.42,0.73-0.42,1.26c0,0.53,0.14,0.94,0.43,1.25c0.29,0.31,0.67,0.46,1.16,0.46c0.47,0,0.85-0.15,1.14-0.45c0.29-0.3,0.43-0.72,0.43-1.26s-0.14-0.96-0.42-1.26C82.78,20.73,82.4,20.58,81.91,20.58z" />
    <path d="M85.95,20.58c-0.49,0-0.88,0.15-1.17,0.46c-0.28,0.31-0.42,0.73-0.42,1.26c0,0.53,0.14,0.94,0.43,1.25c0.29,0.31,0.67,0.46,1.16,0.46c0.47,0,0.85-0.15,1.14-0.46c0.29-0.31,0.44-0.72,0.44-1.25c0-0.53-0.14-0.95-0.42-1.26C86.83,20.73,86.45,20.58,85.95,20.58z" />
    <path d="M94.27,4.25c0.46,0,0.84-0.15,1.13-0.46c0.29-0.31,0.44-0.72,0.44-1.25c0-0.54-0.14-0.96-0.42-1.26c-0.28-0.3-0.66-0.45-1.14-0.45c-0.5,0-0.9,0.15-1.18,0.46c-0.28,0.31-0.42,0.73-0.42,1.26c0,0.53,0.14,0.94,0.43,1.25S93.77,4.25,94.27,4.25z" />
    <path d="M92.53,15.2h-2.97c-0.01,0-0.01,0-0.02,0c-0.01,0-0.01,0-0.02,0h-3.57V6.29h-3.54v8.91h-3.68c-0.01,0-0.01,0-0.01,0c-0.01,0-0.01,0-0.01,0h-2.97V6.29H71.5c-2.18,0-3.88,0.52-5.11,1.56c-1.22,1.04-1.83,2.45-1.83,4.22c0,1.18,0.38,2.23,1.15,3.13h-3.4c-0.01,0-0.01,0-0.01,0c-0.01,0-0.01,0-0.01,0H59.3V0h-3.54v18.06h6.51c0.01,0,0.01,0,0.01,0c0.01,0,0.01,0,0.01,0h16.4c0.01,0,0.01,0,0.01,0c0.01,0,0.01,0,0.01,0h10.79c0.01,0,0.01,0,0.02-0.01c0.01,0,0.01,0.01,0.02,0.01h6.51V6.29h-3.54V15.2z M72.19,15.2h-0.67c-1.08,0-1.9-0.26-2.47-0.77c-0.57-0.51-0.85-1.24-0.85-2.18c0-1.01,0.29-1.79,0.88-2.32c0.59-0.53,1.42-0.79,2.48-0.79h0.63V15.2z" />
    <path d="M114.8,20.58c-0.5,0-0.88,0.15-1.17,0.46c-0.28,0.31-0.42,0.73-0.42,1.26c0,0.53,0.14,0.94,0.43,1.25c0.29,0.31,0.67,0.46,1.16,0.46c0.47,0,0.85-0.15,1.14-0.45c0.29-0.3,0.43-0.72,0.43-1.26s-0.14-0.96-0.42-1.26C115.67,20.73,115.29,20.58,114.8,20.58z" />
    <path d="M117.04,6.29v8.91h-4.16c-0.01,0-0.01,0-0.01,0c-0.01,0-0.01,0-0.01,0h-2.97V6.29h-3.61c-1.5,0-2.82,0.25-3.97,0.75s-2.03,1.23-2.66,2.18c-0.63,0.95-0.94,2.05-0.94,3.3c0,1.77,0.46,3.14,1.37,4.1c0.91,0.96,2.22,1.44,3.91,1.44h2.36v0.12c0,0.86-0.24,1.53-0.73,2.02s-1.18,0.74-2.08,0.74c-0.62,0-1.21-0.07-1.79-0.2c-0.57-0.14-1.18-0.37-1.82-0.7l-1.38,2.59c0.73,0.43,1.48,0.73,2.27,0.9c0.79,0.17,1.72,0.25,2.79,0.25c2,0,3.54-0.5,4.64-1.5c1.09-1,1.64-2.4,1.64-4.21h2.97c0.01,0,0.01,0,0.01,0c0.01,0,0.01,0,0.01,0h7.69V6.29H117.04z M106.35,15.2h-1.64c-0.8,0-1.39-0.22-1.78-0.67c-0.39-0.45-0.58-1.15-0.58-2.1c0-1.04,0.28-1.85,0.85-2.43c0.57-0.57,1.36-0.86,2.37-0.86h0.77V15.2z" />
    <path d="M118.84,20.58c-0.49,0-0.88,0.15-1.17,0.46c-0.28,0.31-0.42,0.73-0.42,1.26c0,0.53,0.14,0.94,0.43,1.25c0.29,0.31,0.67,0.46,1.16,0.46c0.47,0,0.85-0.15,1.14-0.46c0.29-0.31,0.43-0.72,0.43-1.25c0-0.53-0.14-0.95-0.42-1.26C119.72,20.73,119.33,20.58,118.84,20.58z" />
  </g>
</svg>