<svg xmlns="http://www.w3.org/2000/svg" role="img" aria-hidden="true" width="193.77" height="24" viewBox="0 0 193.77 24">
  <g>
    <path d="M10.43,18.78c0,2.88-2.34,5.22-5.22,5.22C2.34,24,0,21.66,0,18.78s2.34-5.22,5.22-5.22C8.1,13.57,10.43,15.9,10.43,18.78" />
    <path d="M24,18.78c0,2.88-2.34,5.22-5.22,5.22c-2.88,0-5.22-2.34-5.22-5.22s2.34-5.22,5.22-5.22C21.66,13.57,24,15.9,24,18.78" />
    <path d="M10.43,5.22c0,2.88-2.34,5.22-5.22,5.22C2.34,10.43,0,8.1,0,5.22S2.34,0,5.22,0C8.1,0,10.43,2.34,10.43,5.22" />
  </g>
  <g>
    <path d="M46.15,23.37v-2.06C45.04,22.99,43.02,24,40.96,24c-3.96,0-6.52-2.91-6.52-6.9V7.28h3.45v9.56c0,2.37,1.39,4.08,3.83,4.08c2.37,0,4.4-1.84,4.4-4.4V7.28h3.42v16.08H46.15z" />
    <path d="M56.28,7.28v2.06c1.14-1.68,3.13-2.69,5.22-2.69c3.93,0,6.49,2.91,6.49,6.9v9.82h-3.42V13.8c0-2.37-1.42-4.08-3.83-4.08c-2.41,0-4.4,1.84-4.4,4.4v9.25h-3.45V7.28H56.28z" />
    <path d="M70.86,2.56c0-1.2,0.89-2.06,2.15-2.06c1.23,0,2.12,0.85,2.12,2.06c0,1.23-0.89,2.12-2.12,2.12C71.75,4.69,70.86,3.8,70.86,2.56 M74.72,23.37H71.3V7.28h3.42V23.37z" />
    <polygon points="82.55,23.37 76.67,7.28 80.34,7.28 84.96,20.71 89.62,7.28 93.32,7.28 87.4,23.37" />
    <path d="M102.27,6.65c5,0,8.55,3.55,8.55,8.52c0,0.38-0.03,0.85-0.06,1.23L97.2,16.37c0.41,2.85,2.41,4.75,5.03,4.75c2.15,0,4.15-1.27,4.75-3.04l3.23,0.48c-0.92,3.17-4.24,5.45-7.92,5.45c-5.03,0-8.64-3.7-8.64-8.87C93.65,10.19,97.26,6.65,102.27,6.65 M107.24,13.84c-0.38-2.53-2.41-4.31-5.07-4.31c-2.6,0-4.5,1.74-4.94,4.31H107.24z" />
    <path d="M116.66,7.28v2.06c0.98-1.65,2.53-2.63,4.37-2.63c0.63,0,1.36,0.16,2.06,0.41v3.07c-0.89-0.38-1.87-0.51-2.5-0.51c-2.28,0-3.8,2.03-3.8,4.88v8.8h-3.45V7.28H116.66z" />
    <polygon points="129.57,23.37 124.38,7.28 127.96,7.28 131.98,19.98 135.52,7.28 139.17,7.28 142.84,20.04 146.8,7.28 150.34,7.28 145.09,23.37 140.56,23.37 137.36,11.27 134.1,23.37" />
    <path d="M159.56,6.65c5,0,8.55,3.55,8.55,8.52c0,0.38-0.03,0.85-0.06,1.23l-13.55-0.03c0.41,2.85,2.41,4.75,5.03,4.75c2.15,0,4.15-1.27,4.75-3.04l3.23,0.48c-0.92,3.17-4.24,5.45-7.92,5.45c-5.03,0-8.64-3.7-8.64-8.87C150.94,10.19,154.55,6.65,159.56,6.65 M164.53,13.84c-0.38-2.53-2.41-4.31-5.07-4.31c-2.6,0-4.5,1.74-4.94,4.31H164.53z" />
    <path d="M179.91,24c-2.47,0-4.53-1.08-5.92-2.88v2.25h-3.36V0h3.45v9.47c1.36-1.77,3.42-2.82,5.83-2.82c4.69,0,8.07,3.64,8.07,8.68C187.98,20.36,184.56,24,179.91,24 M173.96,15.32c0,3.13,2.22,5.45,5.29,5.45c3.04,0,5.32-2.25,5.32-5.45c0-3.13-2.25-5.45-5.32-5.45C176.17,9.88,173.96,12.19,173.96,15.32" />
    <path d="M189.53,21.69c0-1.2,0.89-2.06,2.12-2.06c1.27,0,2.12,0.85,2.12,2.06c0,1.23-0.85,2.12-2.12,2.12C190.42,23.81,189.53,22.92,189.53,21.69" />
  </g>
</svg>