<svg xmlns="http://www.w3.org/2000/svg" role="img" aria-hidden="true" width="24" height="24" viewBox="0 0 24 24" fill="currentColor">
  <path d="M21.5,7.1c0,0.2,0,0.4,0,0.6c0,6.5-4.9,14-14,14c-2.8,0-5.4-0.8-7.6-2.2c0.4,0,0.8,0.1,1.2,0.1c2.3,0,4.4-0.8,6.1-2.1c-2.2,0-4-1.5-4.6-3.4c0.3,0,0.6,0.1,0.9,0.1c0.4,0,0.9-0.1,1.3-0.2C2.7,13.5,1,11.6,1,9.2V9.1c0.7,0.4,1.4,0.6,2.2,0.6C1.9,8.8,1,7.3,1,5.6c0-0.9,0.2-1.8,0.7-2.5c2.4,3,6.1,4.9,10.1,5.1c-0.1-0.4-0.1-0.7-0.1-1.1c0-2.7,2.2-4.9,4.9-4.9c1.4,0,2.7,0.6,3.6,1.6c1.1-0.2,2.2-0.6,3.1-1.2c-0.4,1.1-1.1,2.1-2.2,2.7c1-0.1,1.9-0.4,2.8-0.8C23.3,5.5,22.5,6.4,21.5,7.1L21.5,7.1z"/>
</svg>